<svg xmlns="http://www.w3.org/2000/svg" xmlns:xlink="http://www.w3.org/1999/xlink" width="500" zoomAndPan="magnify" viewBox="0 0 375 374.999991" height="500" preserveAspectRatio="xMidYMid meet" version="1.0"><defs><clipPath id="6cf56a138b"><path d="M 18.046875 0 L 339 0 L 339 375 L 18.046875 375 Z M 18.046875 0 " clip-rule="nonzero"/></clipPath></defs><g clip-path="url(#6cf56a138b)"><path fill="#c79e39" d="M 179.984375 138.328125 L 179.363281 94.945312 L 148.269531 94.945312 C 148.269531 94.945312 19.550781 176.488281 19.59375 175.117188 L 18.355469 374.949219 L 233.8125 374.421875 C 333.292969 374.15625 357.046875 268.421875 321.835938 217.214844 L 275.925781 245.828125 C 297.597656 275.367188 283.707031 318.613281 232.621094 318.613281 L 74.753906 318.480469 L 75.992188 206.691406 Z M 279.859375 117.898438 C 275.925781 130.722656 263.40625 142.085938 248.941406 152.125 C 234.125 162.382812 217.316406 171.269531 205.683594 178.832031 L 125.132812 230.4375 L 125.796875 295.089844 L 190.644531 254.804688 C 269.554688 202.492188 342.847656 179.496094 338.777344 93.308594 C 337.363281 62.753906 323.253906 34.097656 307.417969 19.816406 C 287.292969 1.597656 268.273438 0.0507812 242.96875 0.0507812 L 18.046875 0.0507812 L 18.136719 120.859375 L 74.578125 89.417969 L 75.328125 55.28125 L 246.15625 55.28125 C 280.65625 55.28125 288.175781 90.570312 279.859375 117.898438 Z M 279.859375 117.898438 " fill-opacity="1" fill-rule="evenodd"/></g></svg>