<svg width="281" height="327" viewBox="0 0 281 327" fill="none" xmlns="http://www.w3.org/2000/svg">
<g filter="url(#filter0_d_1_8)">
<mask id="mask0_1_8" style="mask-type:luminance" maskUnits="userSpaceOnUse" x="0" y="0" width="274" height="319">
<path d="M0 0H273.024V319H0V0Z" fill="white"/>
</mask>
<g mask="url(#mask0_1_8)">
<path fill-rule="evenodd" clip-rule="evenodd" d="M137.755 117.671L137.226 80.7669H110.776C110.776 80.7669 1.27932 150.133 1.31588 148.966L0.26251 318.957L183.545 318.508C268.169 318.282 288.376 228.338 258.423 184.778L219.369 209.118C237.805 234.246 225.988 271.034 182.531 271.034L48.2388 270.921L49.2921 175.826L137.755 117.671ZM222.715 100.292C219.369 111.202 208.719 120.868 196.414 129.408C183.81 138.134 169.512 145.693 159.616 152.127L91.0944 196.026L91.6593 251.023L146.823 216.754C213.949 172.253 276.297 152.691 272.835 79.3746C271.632 53.3828 259.629 29.0059 246.158 16.8573C229.039 1.35921 212.859 0.0433311 191.334 0.0433311H0L0.0764271 102.811L48.0893 76.065L48.7273 47.026H194.045C223.393 47.026 229.79 77.0453 222.715 100.292Z" fill="white"/>
</g>
</g>
<defs>
<filter id="filter0_d_1_8" x="0" y="0.0433311" width="280.973" height="326.914" filterUnits="userSpaceOnUse" color-interpolation-filters="sRGB">
<feFlood flood-opacity="0" result="BackgroundImageFix"/>
<feColorMatrix in="SourceAlpha" type="matrix" values="0 0 0 0 0 0 0 0 0 0 0 0 0 0 0 0 0 0 127 0" result="hardAlpha"/>
<feOffset dx="4" dy="4"/>
<feGaussianBlur stdDeviation="2"/>
<feComposite in2="hardAlpha" operator="out"/>
<feColorMatrix type="matrix" values="0 0 0 0 0 0 0 0 0 0 0 0 0 0 0 0 0 0 0.3 0"/>
<feBlend mode="normal" in2="BackgroundImageFix" result="effect1_dropShadow_1_8"/>
<feBlend mode="normal" in="SourceGraphic" in2="effect1_dropShadow_1_8" result="shape"/>
</filter>
</defs>
</svg>
