<svg width="281" height="88" viewBox="0 0 281 88" fill="none" xmlns="http://www.w3.org/2000/svg">
<path d="M54.4986 28.244L57.8106 27.704V1.496L54.4986 0.991998V0.2H65.4786C68.0706 0.2 70.1346 0.439999 71.6706 0.919999C73.2066 1.4 74.3226 2.132 75.0186 3.116C75.7146 4.076 76.0626 5.348 76.0626 6.932C76.0626 10.388 73.8786 12.596 69.5106 13.556V13.736C72.1746 14.096 74.2386 14.888 75.7026 16.112C77.1906 17.336 77.9346 19.04 77.9346 21.224C77.9346 23.864 76.9626 25.82 75.0186 27.092C73.0986 28.364 70.4946 29 67.2066 29H54.4986V28.244ZM65.7666 13.448C67.6866 13.448 69.1626 12.908 70.1946 11.828C71.2266 10.748 71.7426 9.212 71.7426 7.22V7.004C71.7426 3.068 69.6546 1.1 65.4786 1.1H61.7706V13.448H65.7666ZM67.2066 28.136C69.2466 28.136 70.8306 27.548 71.9586 26.372C73.0866 25.172 73.6506 23.468 73.6506 21.26V20.864C73.6506 18.68 73.0866 17.048 71.9586 15.968C70.8546 14.888 69.2706 14.348 67.2066 14.348H61.7706V28.136H67.2066ZM84.7068 6.176C84.0348 6.176 83.4588 5.948 82.9788 5.492C82.4988 5.012 82.2588 4.436 82.2588 3.764C82.2588 3.092 82.4868 2.528 82.9428 2.072C83.4228 1.616 84.0108 1.388 84.7068 1.388C85.3548 1.388 85.9068 1.616 86.3628 2.072C86.8188 2.528 87.0468 3.092 87.0468 3.764C87.0468 4.436 86.8188 5.012 86.3628 5.492C85.9068 5.948 85.3548 6.176 84.7068 6.176ZM80.8908 29V28.28L83.4108 27.92V11.468L80.8908 11.108V10.388H87.0108V27.92L89.5308 28.28V29H80.8908ZM103.213 29.36C101.797 29.36 100.573 29 99.5411 28.28C98.5331 27.536 97.7291 26.528 97.1291 25.256V29H91.0091V28.28L93.5291 27.92V1.28L91.0091 0.919999V0.2H97.1291V14.132C97.7291 12.86 98.5331 11.864 99.5411 11.144C100.573 10.4 101.797 10.028 103.213 10.028C104.917 10.028 106.417 10.424 107.713 11.216C109.009 12.008 110.017 13.136 110.737 14.6C111.457 16.04 111.817 17.732 111.817 19.676C111.817 21.62 111.457 23.324 110.737 24.788C110.017 26.228 109.009 27.356 107.713 28.172C106.417 28.964 104.917 29.36 103.213 29.36ZM102.853 28.46C106.189 28.46 107.857 26.132 107.857 21.476V17.876C107.857 13.244 106.189 10.928 102.853 10.928C101.797 10.928 100.837 11.24 99.9731 11.864C99.1091 12.464 98.4251 13.28 97.9211 14.312C97.4171 15.32 97.1531 16.424 97.1291 17.624V21.476C97.1291 22.7 97.3691 23.852 97.8491 24.932C98.3531 26.012 99.0371 26.876 99.9011 27.524C100.789 28.148 101.773 28.46 102.853 28.46ZM114.072 29V28.28L116.772 27.92V1.28L114.072 0.919999V0.2H120.372V27.92L122.892 28.28V29H114.072ZM128.476 6.176C127.804 6.176 127.228 5.948 126.748 5.492C126.268 5.012 126.028 4.436 126.028 3.764C126.028 3.092 126.256 2.528 126.712 2.072C127.192 1.616 127.78 1.388 128.476 1.388C129.124 1.388 129.676 1.616 130.132 2.072C130.588 2.528 130.816 3.092 130.816 3.764C130.816 4.436 130.588 5.012 130.132 5.492C129.676 5.948 129.124 6.176 128.476 6.176ZM124.66 29V28.28L127.18 27.92V11.468L124.66 11.108V10.388H130.78V27.92L133.3 28.28V29H124.66ZM144.931 29.36C143.203 29.36 141.631 28.964 140.215 28.172C138.799 27.356 137.671 26.216 136.831 24.752C136.015 23.264 135.607 21.572 135.607 19.676C135.607 17.78 136.015 16.1 136.831 14.636C137.671 13.172 138.799 12.044 140.215 11.252C141.631 10.436 143.203 10.028 144.931 10.028C146.659 10.028 148.231 10.436 149.647 11.252C151.063 12.044 152.179 13.172 152.995 14.636C153.835 16.1 154.255 17.78 154.255 19.676C154.255 21.572 153.835 23.264 152.995 24.752C152.179 26.216 151.063 27.356 149.647 28.172C148.231 28.964 146.659 29.36 144.931 29.36ZM144.931 28.568C146.707 28.568 148.039 27.92 148.927 26.624C149.839 25.328 150.295 23.612 150.295 21.476V17.876C150.295 15.74 149.839 14.036 148.927 12.764C148.039 11.468 146.707 10.82 144.931 10.82C143.155 10.82 141.811 11.468 140.899 12.764C140.011 14.036 139.567 15.74 139.567 17.876V21.476C139.567 23.612 140.011 25.328 140.899 26.624C141.811 27.92 143.155 28.568 144.931 28.568ZM164.209 29.36C162.625 29.36 161.353 28.964 160.393 28.172C159.457 27.38 158.989 26.12 158.989 24.392V11.432L156.433 11.072V10.352H158.989V7.364L162.589 6.464V10.352H167.269V11.072L162.589 11.432V24.32C162.589 26.864 163.501 28.136 165.325 28.136C165.709 28.136 166.069 28.076 166.405 27.956C166.765 27.836 167.041 27.716 167.233 27.596C167.449 27.476 167.581 27.392 167.629 27.344L168.097 27.92C167.017 28.88 165.721 29.36 164.209 29.36ZM178.228 29.36C176.452 29.36 174.844 28.964 173.404 28.172C171.964 27.356 170.824 26.216 169.984 24.752C169.144 23.288 168.724 21.596 168.724 19.676C168.724 17.756 169.132 16.076 169.948 14.636C170.788 13.172 171.904 12.044 173.296 11.252C174.712 10.436 176.284 10.028 178.012 10.028C179.524 10.028 180.88 10.364 182.08 11.036C183.28 11.708 184.216 12.644 184.888 13.844C185.56 15.02 185.908 16.376 185.932 17.912H172.684V21.476C172.684 23.588 173.152 25.304 174.088 26.624C175.048 27.92 176.428 28.568 178.228 28.568C179.884 28.568 181.348 28.1 182.62 27.164C183.892 26.228 184.672 25.016 184.96 23.528H185.788C185.452 25.304 184.6 26.72 183.232 27.776C181.864 28.832 180.196 29.36 178.228 29.36ZM181.972 17.012C181.972 14.924 181.648 13.376 181 12.368C180.352 11.336 179.344 10.82 177.976 10.82C176.368 10.82 175.12 11.384 174.232 12.512C173.344 13.64 172.84 15.14 172.72 17.012H181.972ZM198.227 29.36C196.499 29.36 194.927 28.964 193.511 28.172C192.095 27.356 190.967 26.216 190.127 24.752C189.311 23.264 188.903 21.572 188.903 19.676C188.903 17.684 189.335 15.956 190.199 14.492C191.087 13.028 192.239 11.924 193.655 11.18C195.071 10.412 196.595 10.028 198.227 10.028C199.595 10.028 200.843 10.268 201.971 10.748C203.099 11.204 203.987 11.852 204.635 12.692C205.307 13.532 205.643 14.48 205.643 15.536C205.643 16.328 205.439 16.94 205.031 17.372C204.623 17.78 204.083 17.984 203.411 17.984C202.763 17.984 202.223 17.768 201.791 17.336C201.359 16.904 201.143 16.364 201.143 15.716C201.503 15.476 201.755 15.212 201.899 14.924C202.043 14.636 202.115 14.276 202.115 13.844C202.115 12.956 201.755 12.236 201.035 11.684C200.339 11.108 199.403 10.82 198.227 10.82C196.499 10.82 195.167 11.444 194.231 12.692C193.319 13.916 192.863 15.644 192.863 17.876V21.476C192.863 23.612 193.307 25.328 194.195 26.624C195.107 27.92 196.451 28.568 198.227 28.568C199.859 28.568 201.275 28.112 202.475 27.2C203.699 26.264 204.455 25.04 204.743 23.528H205.571C205.235 25.304 204.395 26.72 203.051 27.776C201.731 28.832 200.123 29.36 198.227 29.36ZM213.428 29.36C211.892 29.36 210.632 28.964 209.648 28.172C208.664 27.356 208.172 26.156 208.172 24.572C208.172 22.316 209.12 20.72 211.016 19.784C212.912 18.824 215.108 18.344 217.604 18.344H220.016V15.572C220.016 14.324 219.872 13.364 219.584 12.692C219.32 11.996 218.9 11.516 218.324 11.252C217.748 10.964 216.968 10.82 215.984 10.82C214.856 10.82 214.016 11.048 213.464 11.504C212.912 11.936 212.636 12.524 212.636 13.268C212.636 13.964 212.972 14.42 213.644 14.636C213.644 15.236 213.416 15.764 212.96 16.22C212.504 16.676 211.964 16.904 211.34 16.904C210.668 16.904 210.128 16.724 209.72 16.364C209.312 15.98 209.108 15.404 209.108 14.636C209.108 13.244 209.804 12.128 211.196 11.288C212.588 10.448 214.328 10.028 216.416 10.028C221.216 10.028 223.616 12.116 223.616 16.292V26.588C223.616 27.116 223.724 27.524 223.94 27.812C224.18 28.076 224.516 28.208 224.948 28.208C225.356 28.208 225.68 28.076 225.92 27.812C226.16 27.524 226.28 27.14 226.28 26.66H227.036C227.036 27.5 226.76 28.16 226.208 28.64C225.68 29.12 224.936 29.36 223.976 29.36C222.872 29.36 221.936 29.048 221.168 28.424C220.424 27.776 220.04 26.78 220.016 25.436C219.44 26.66 218.552 27.62 217.352 28.316C216.176 29.012 214.868 29.36 213.428 29.36ZM215.408 27.776C216.056 27.776 216.716 27.584 217.388 27.2C218.084 26.816 218.672 26.264 219.152 25.544C219.632 24.8 219.92 23.912 220.016 22.88V19.136H217.604C215.636 19.136 214.16 19.58 213.176 20.468C212.216 21.332 211.736 22.556 211.736 24.14C211.736 25.46 212.048 26.396 212.672 26.948C213.296 27.5 214.208 27.776 215.408 27.776ZM15.791 78.36L5.063 50.496V75.804L8.519 77.244V78H0.815V77.244L4.199 75.804V50.496L0.887 49.992V49.2H8.843L17.879 72.312L27.095 49.2H34.367V49.992L31.055 50.496V76.704L34.367 77.244V78H23.783V77.244L27.095 76.704V51.576L16.439 78.36H15.791ZM42.7089 78.36C41.1729 78.36 39.9129 77.964 38.9289 77.172C37.9449 76.356 37.4529 75.156 37.4529 73.572C37.4529 71.316 38.4009 69.72 40.2969 68.784C42.1929 67.824 44.3889 67.344 46.8849 67.344H49.2969V64.572C49.2969 63.324 49.1529 62.364 48.8649 61.692C48.6009 60.996 48.1809 60.516 47.6049 60.252C47.0289 59.964 46.2489 59.82 45.2649 59.82C44.1369 59.82 43.2969 60.048 42.7449 60.504C42.1929 60.936 41.9169 61.524 41.9169 62.268C41.9169 62.964 42.2529 63.42 42.9249 63.636C42.9249 64.236 42.6969 64.764 42.2409 65.22C41.7849 65.676 41.2449 65.904 40.6209 65.904C39.9489 65.904 39.4089 65.724 39.0009 65.364C38.5929 64.98 38.3889 64.404 38.3889 63.636C38.3889 62.244 39.0849 61.128 40.4769 60.288C41.8689 59.448 43.6089 59.028 45.6969 59.028C50.4969 59.028 52.8969 61.116 52.8969 65.292V75.588C52.8969 76.116 53.0049 76.524 53.2209 76.812C53.4609 77.076 53.7969 77.208 54.2289 77.208C54.6369 77.208 54.9609 77.076 55.2009 76.812C55.4409 76.524 55.5609 76.14 55.5609 75.66H56.3169C56.3169 76.5 56.0409 77.16 55.4889 77.64C54.9609 78.12 54.2169 78.36 53.2569 78.36C52.1529 78.36 51.2169 78.048 50.4489 77.424C49.7049 76.776 49.3209 75.78 49.2969 74.436C48.7209 75.66 47.8329 76.62 46.6329 77.316C45.4569 78.012 44.1489 78.36 42.7089 78.36ZM44.6889 76.776C45.3369 76.776 45.9969 76.584 46.6689 76.2C47.3649 75.816 47.9529 75.264 48.4329 74.544C48.9129 73.8 49.2009 72.912 49.2969 71.88V68.136H46.8849C44.9169 68.136 43.4409 68.58 42.4569 69.468C41.4969 70.332 41.0169 71.556 41.0169 73.14C41.0169 74.46 41.3289 75.396 41.9529 75.948C42.5769 76.5 43.4889 76.776 44.6889 76.776ZM44.0769 57.012L46.7409 51.324C46.8609 51.036 47.0649 50.796 47.3529 50.604C47.6409 50.412 47.9529 50.316 48.2889 50.316C48.7449 50.316 49.1409 50.484 49.4769 50.82C49.8129 51.156 49.9809 51.552 49.9809 52.008C49.9809 52.56 49.7769 52.98 49.3689 53.268L44.6529 57.444L44.0769 57.012ZM56.8431 77.28L59.3631 76.92V60.432L56.8431 60.072V59.352H62.9631V62.124C64.4751 60.06 66.1791 59.028 68.0751 59.028C68.9871 59.028 69.7911 59.268 70.4871 59.748C71.1831 60.204 71.5311 60.864 71.5311 61.728C71.5311 62.352 71.3271 62.88 70.9191 63.312C70.5111 63.72 69.9711 63.924 69.2991 63.924C68.5311 63.924 67.9071 63.624 67.4271 63.024C67.6911 62.688 67.8231 62.328 67.8231 61.944C67.8231 61.536 67.6791 61.212 67.3911 60.972C67.1271 60.708 66.7671 60.576 66.3111 60.576C65.8071 60.576 65.2911 60.816 64.7631 61.296C64.2351 61.752 63.6351 62.472 62.9631 63.456V76.92L65.8431 77.28V78H56.8431V77.28ZM76.6209 55.176C75.9489 55.176 75.3729 54.948 74.8929 54.492C74.4129 54.012 74.1729 53.436 74.1729 52.764C74.1729 52.092 74.4009 51.528 74.8569 51.072C75.3369 50.616 75.9249 50.388 76.6209 50.388C77.2689 50.388 77.8209 50.616 78.2769 51.072C78.7329 51.528 78.9609 52.092 78.9609 52.764C78.9609 53.436 78.7329 54.012 78.2769 54.492C77.8209 54.948 77.2689 55.176 76.6209 55.176ZM72.8049 78V77.28L75.3249 76.92V60.468L72.8049 60.108V59.388H78.9249V76.92L81.4449 77.28V78H72.8049ZM93.0751 78.36C91.3471 78.36 89.7751 77.964 88.3591 77.172C86.9431 76.356 85.8151 75.216 84.9751 73.752C84.1591 72.264 83.7511 70.572 83.7511 68.676C83.7511 66.78 84.1591 65.1 84.9751 63.636C85.8151 62.172 86.9431 61.044 88.3591 60.252C89.7751 59.436 91.3471 59.028 93.0751 59.028C94.8031 59.028 96.3751 59.436 97.7911 60.252C99.2071 61.044 100.323 62.172 101.139 63.636C101.979 65.1 102.399 66.78 102.399 68.676C102.399 70.572 101.979 72.264 101.139 73.752C100.323 75.216 99.2071 76.356 97.7911 77.172C96.3751 77.964 94.8031 78.36 93.0751 78.36ZM93.0751 77.568C94.8511 77.568 96.1831 76.92 97.0711 75.624C97.9831 74.328 98.4391 72.612 98.4391 70.476V66.876C98.4391 64.74 97.9831 63.036 97.0711 61.764C96.1831 60.468 94.8511 59.82 93.0751 59.82C91.2991 59.82 89.9551 60.468 89.0431 61.764C88.1551 63.036 87.7111 64.74 87.7111 66.876V70.476C87.7111 72.612 88.1551 74.328 89.0431 75.624C89.9551 76.92 91.2991 77.568 93.0751 77.568ZM125.395 78.72C123.163 78.72 120.967 78.084 118.807 76.812L115.747 78.36H114.955V69.108H115.747L118.843 75.804C120.835 77.22 123.115 77.928 125.683 77.928C127.795 77.928 129.535 77.376 130.903 76.272C132.295 75.144 132.991 73.572 132.991 71.556C132.991 70.092 132.547 68.94 131.659 68.1C130.771 67.236 129.331 66.552 127.339 66.048L121.363 64.5C119.275 63.948 117.703 63.012 116.647 61.692C115.591 60.348 115.063 58.764 115.063 56.94C115.063 55.284 115.387 53.82 116.035 52.548C116.707 51.252 117.679 50.256 118.951 49.56C120.223 48.84 121.735 48.48 123.487 48.48C125.671 48.48 127.627 48.852 129.355 49.596L131.983 48.48H132.775V55.824H131.983L129.391 50.568C127.591 49.704 125.635 49.272 123.523 49.272C121.435 49.272 119.791 49.812 118.591 50.892C117.391 51.948 116.791 53.352 116.791 55.104C116.791 56.4 117.211 57.42 118.051 58.164C118.915 58.908 120.175 59.496 121.831 59.928L128.275 61.62C130.363 62.148 131.911 63.06 132.919 64.356C133.951 65.628 134.467 67.572 134.467 70.188C134.467 72.852 133.639 74.94 131.983 76.452C130.351 77.964 128.155 78.72 125.395 78.72ZM137.276 77.28L139.796 76.92V50.28L137.276 49.92V49.2H143.396V63.24C144.284 61.944 145.328 60.924 146.528 60.18C147.728 59.412 149.024 59.028 150.416 59.028C152.144 59.028 153.5 59.46 154.484 60.324C155.492 61.188 155.996 62.472 155.996 64.176V76.92L158.516 77.28V78H150.236V77.28L152.396 76.92V64.248C152.396 63 152.144 62.04 151.64 61.368C151.136 60.672 150.356 60.324 149.3 60.324C148.196 60.324 147.128 60.732 146.096 61.548C145.088 62.34 144.188 63.324 143.396 64.5V76.92L145.556 77.28V78H137.276V77.28ZM170.212 78.36C168.436 78.36 166.828 77.964 165.388 77.172C163.948 76.356 162.808 75.216 161.968 73.752C161.128 72.288 160.708 70.596 160.708 68.676C160.708 66.756 161.116 65.076 161.932 63.636C162.772 62.172 163.888 61.044 165.28 60.252C166.696 59.436 168.268 59.028 169.996 59.028C171.508 59.028 172.864 59.364 174.064 60.036C175.264 60.708 176.2 61.644 176.872 62.844C177.544 64.02 177.892 65.376 177.916 66.912H164.668V70.476C164.668 72.588 165.136 74.304 166.072 75.624C167.032 76.92 168.412 77.568 170.212 77.568C171.868 77.568 173.332 77.1 174.604 76.164C175.876 75.228 176.656 74.016 176.944 72.528H177.772C177.436 74.304 176.584 75.72 175.216 76.776C173.848 77.832 172.18 78.36 170.212 78.36ZM173.956 66.012C173.956 63.924 173.632 62.376 172.984 61.368C172.336 60.336 171.328 59.82 169.96 59.82C168.352 59.82 167.104 60.384 166.216 61.512C165.328 62.64 164.824 64.14 164.704 66.012H173.956ZM180.312 77.28L182.832 76.92V60.432L180.312 60.072V59.352H186.432V63.24C187.32 61.944 188.364 60.924 189.564 60.18C190.764 59.412 192.06 59.028 193.452 59.028C195.18 59.028 196.536 59.46 197.52 60.324C198.528 61.188 199.032 62.472 199.032 64.176V76.92L201.552 77.28V78H193.272V77.28L195.432 76.92V64.248C195.432 63 195.18 62.04 194.676 61.368C194.172 60.672 193.392 60.324 192.336 60.324C191.232 60.324 190.164 60.732 189.132 61.548C188.124 62.34 187.224 63.324 186.432 64.5V76.92L188.592 77.28V78H180.312V77.28ZM215.115 78.36C213.699 78.36 212.475 78 211.443 77.28C210.435 76.536 209.631 75.528 209.031 74.256V78H202.911V77.28L205.431 76.92V50.28L202.911 49.92V49.2H209.031V63.132C209.631 61.86 210.435 60.864 211.443 60.144C212.475 59.4 213.699 59.028 215.115 59.028C216.819 59.028 218.319 59.424 219.615 60.216C220.911 61.008 221.919 62.136 222.639 63.6C223.359 65.04 223.719 66.732 223.719 68.676C223.719 70.62 223.359 72.324 222.639 73.788C221.919 75.228 220.911 76.356 219.615 77.172C218.319 77.964 216.819 78.36 215.115 78.36ZM214.755 77.46C218.091 77.46 219.759 75.132 219.759 70.476V66.876C219.759 62.244 218.091 59.928 214.755 59.928C213.699 59.928 212.739 60.24 211.875 60.864C211.011 61.464 210.327 62.28 209.823 63.312C209.319 64.32 209.055 65.424 209.031 66.624V70.476C209.031 71.7 209.271 72.852 209.751 73.932C210.255 75.012 210.939 75.876 211.803 76.524C212.691 77.148 213.675 77.46 214.755 77.46ZM236.306 78.36C234.53 78.36 232.922 77.964 231.482 77.172C230.042 76.356 228.902 75.216 228.062 73.752C227.222 72.288 226.802 70.596 226.802 68.676C226.802 66.756 227.21 65.076 228.026 63.636C228.866 62.172 229.982 61.044 231.374 60.252C232.79 59.436 234.362 59.028 236.09 59.028C237.602 59.028 238.958 59.364 240.158 60.036C241.358 60.708 242.294 61.644 242.966 62.844C243.638 64.02 243.986 65.376 244.01 66.912H230.762V70.476C230.762 72.588 231.23 74.304 232.166 75.624C233.126 76.92 234.506 77.568 236.306 77.568C237.962 77.568 239.426 77.1 240.698 76.164C241.97 75.228 242.75 74.016 243.038 72.528H243.866C243.53 74.304 242.678 75.72 241.31 76.776C239.942 77.832 238.274 78.36 236.306 78.36ZM240.05 66.012C240.05 63.924 239.726 62.376 239.078 61.368C238.43 60.336 237.422 59.82 236.054 59.82C234.446 59.82 233.198 60.384 232.31 61.512C231.422 62.64 230.918 64.14 230.798 66.012H240.05ZM246.406 77.28L248.926 76.92V60.432L246.406 60.072V59.352H252.526V62.124C254.038 60.06 255.742 59.028 257.638 59.028C258.55 59.028 259.354 59.268 260.05 59.748C260.746 60.204 261.094 60.864 261.094 61.728C261.094 62.352 260.89 62.88 260.482 63.312C260.074 63.72 259.534 63.924 258.862 63.924C258.094 63.924 257.47 63.624 256.99 63.024C257.254 62.688 257.386 62.328 257.386 61.944C257.386 61.536 257.242 61.212 256.954 60.972C256.69 60.708 256.33 60.576 255.874 60.576C255.37 60.576 254.854 60.816 254.326 61.296C253.798 61.752 253.198 62.472 252.526 63.456V76.92L255.406 77.28V78H246.406V77.28ZM280.799 57.66C280.799 58.596 280.451 59.4 279.755 60.072C279.059 60.744 277.955 61.176 276.443 61.368C277.067 62.28 277.379 63.528 277.379 65.112C277.379 66.984 276.707 68.46 275.363 69.54C274.043 70.62 272.363 71.16 270.323 71.16C269.483 71.16 268.715 71.088 268.019 70.944C266.483 71.04 265.715 71.64 265.715 72.744C265.715 73.368 265.967 73.824 266.471 74.112C266.999 74.4 267.827 74.544 268.955 74.544H272.987C274.931 74.544 276.371 74.94 277.307 75.732C278.267 76.524 278.747 77.88 278.747 79.8C278.747 81.144 278.399 82.38 277.703 83.508C277.031 84.636 276.047 85.524 274.751 86.172C273.455 86.844 271.907 87.18 270.107 87.18C267.395 87.18 265.391 86.772 264.095 85.956C262.823 85.14 262.187 84.06 262.187 82.716C262.187 81.9 262.499 81.18 263.123 80.556C263.747 79.932 264.599 79.62 265.679 79.62C265.895 79.62 266.339 79.668 267.011 79.764C266.267 80.556 265.895 81.492 265.895 82.572C265.895 83.604 266.255 84.504 266.975 85.272C267.695 86.04 268.871 86.424 270.503 86.424C271.919 86.424 273.179 86.148 274.283 85.596C275.411 85.068 276.275 84.372 276.875 83.508C277.475 82.644 277.775 81.756 277.775 80.844C277.775 79.836 277.451 79.104 276.803 78.648C276.155 78.216 275.003 78 273.347 78H268.955C267.275 78 266.003 77.676 265.139 77.028C264.299 76.356 263.879 75.372 263.879 74.076C263.879 73.212 264.119 72.456 264.599 71.808C265.103 71.136 265.739 70.704 266.507 70.512C264.419 69.624 263.375 67.824 263.375 65.112C263.375 63.216 264.035 61.728 265.355 60.648C266.675 59.568 268.331 59.028 270.323 59.028C272.843 59.028 274.667 59.556 275.795 60.612C276.467 60.492 276.971 60.276 277.307 59.964C277.643 59.628 277.811 59.256 277.811 58.848C277.811 58.464 277.703 58.176 277.487 57.984C277.271 57.768 277.019 57.66 276.731 57.66C276.731 57.132 276.923 56.676 277.307 56.292C277.715 55.884 278.195 55.68 278.747 55.68C279.347 55.68 279.839 55.86 280.223 56.22C280.607 56.58 280.799 57.06 280.799 57.66ZM273.995 64.212C273.995 62.748 273.683 61.62 273.059 60.828C272.459 60.036 271.547 59.64 270.323 59.64C267.947 59.64 266.759 61.164 266.759 64.212V65.976C266.759 67.392 267.047 68.508 267.623 69.324C268.223 70.14 269.123 70.548 270.323 70.548C271.547 70.548 272.459 70.14 273.059 69.324C273.683 68.508 273.995 67.392 273.995 65.976V64.212Z" fill="#CE6532"/>
</svg>
